<?xml version="1.0" encoding="UTF-8" standalone="no"?>
<!-- Created with Inkscape (http://www.inkscape.org/) -->

<svg
   xmlns:dc="http://purl.org/dc/elements/1.1/"
   xmlns:cc="http://creativecommons.org/ns#"
   xmlns:rdf="http://www.w3.org/1999/02/22-rdf-syntax-ns#"
   xmlns:svg="http://www.w3.org/2000/svg"
   xmlns="http://www.w3.org/2000/svg"
   xmlns:sodipodi="http://sodipodi.sourceforge.net/DTD/sodipodi-0.dtd"
   xmlns:inkscape="http://www.inkscape.org/namespaces/inkscape"
   width="19.999998mm"
   height="13.866713mm"
   viewBox="0 0 19.999998 13.866713"
   version="1.1"
   id="svg8"
   inkscape:version="0.92.2 2405546, 2018-03-11"
   sodipodi:docname="logo.svg">
  <defs
     id="defs2" />
  <sodipodi:namedview
     id="base"
     pagecolor="#ffffff"
     bordercolor="#666666"
     borderopacity="1.0"
     inkscape:pageopacity="0.0"
     inkscape:pageshadow="2"
     inkscape:zoom="5.6"
     inkscape:cx="16.417304"
     inkscape:cy="24.304703"
     inkscape:document-units="mm"
     inkscape:current-layer="layer1"
     showgrid="false"
     fit-margin-top="0"
     fit-margin-left="0"
     fit-margin-right="0"
     fit-margin-bottom="0"
     inkscape:window-width="1588"
     inkscape:window-height="821"
     inkscape:window-x="0"
     inkscape:window-y="27"
     inkscape:window-maximized="1" />
  <metadata
     id="metadata5">
    <rdf:RDF>
      <cc:Work
         rdf:about="">
        <dc:format>image/svg+xml</dc:format>
        <dc:type
           rdf:resource="http://purl.org/dc/dcmitype/StillImage" />
        <dc:title></dc:title>
      </cc:Work>
    </rdf:RDF>
  </metadata>
  <g
     inkscape:label="Ebene 1"
     inkscape:groupmode="layer"
     id="layer1"
     transform="translate(-121.33036,-126.45202)">
    <path
       style="fill:#000000;fill-opacity:1;stroke:none;stroke-width:0.02221849;stroke-opacity:1"
       d="m 127.97369,140.29622 c 0,-0.0111 -0.13748,-0.1331 -0.3055,-0.27114 -1.28137,-1.05266 -1.97393,-1.8327 -2.36925,-2.6685 -0.16605,-0.35105 -0.23786,-0.58133 -0.33802,-1.08397 -0.008,-0.0428 -0.0186,-0.4815 -0.0224,-0.97495 -0.004,-0.5612 -0.0164,-0.94314 -0.0323,-1.01993 -0.12388,-0.59672 -0.65983,-1.34424 -1.5582,-2.17328 -0.44682,-0.41235 -0.44775,-0.41319 -0.57149,-0.51833 -0.0561,-0.0477 -0.12695,-0.10876 -0.1575,-0.13581 -0.0305,-0.0271 -0.20552,-0.17507 -0.38882,-0.32894 -0.1833,-0.15387 -0.34555,-0.29163 -0.36054,-0.30615 -0.015,-0.0145 -0.14247,-0.11936 -0.28328,-0.233 -0.14082,-0.11364 -0.25603,-0.21384 -0.25603,-0.22265 0,-0.0448 1.01666,-0.91627 1.41034,-1.20897 0.96727,-0.71915 1.70924,-1.00335 2.81299,-1.07746 0.56332,-0.0378 1.50983,0.0535 2.18628,0.21089 0.0853,0.0199 0.19028,0.0371 0.23329,0.0383 0.043,0.001 0.0882,0.01 0.10041,0.0188 0.0122,0.009 0.1372,0.0423 0.27773,0.0737 1.18704,0.26543 1.53273,0.31381 2.12839,0.29791 0.44278,-0.0118 0.68116,-0.0533 1.07076,-0.18644 0.39479,-0.1349 0.97832,-0.44623 1.46673,-0.78254 0.31664,-0.21803 1.12759,-0.8466 1.55673,-1.20664 0.0558,-0.0468 0.1084,-0.0851 0.11693,-0.0851 0.0134,0 0.31288,0.24023 0.63707,0.51109 0.055,0.0459 0.23263,0.19349 0.39475,0.32789 0.16212,0.1344 0.36708,0.30879 0.45548,0.38754 0.0884,0.0788 0.2555,0.22743 0.37137,0.33041 1.22655,1.09015 2.0806,2.07826 2.57299,2.97688 0.19986,0.36475 0.38632,0.82879 0.46023,1.14541 0.12886,0.55196 0.14824,0.83852 0.11911,1.76137 -0.0109,0.34424 0.008,0.58991 0.0601,0.7738 0.0936,0.33192 0.50504,0.80661 1.15396,1.33137 0.18714,0.15133 0.2064,0.16724 0.28533,0.23558 0.0386,0.0334 0.0827,0.0609 0.0979,0.0611 0.081,0.001 0.004,0.0972 -0.23192,0.2892 -0.1426,0.11609 -0.27008,0.22107 -0.2833,0.23329 -0.11765,0.10877 -0.72876,0.58073 -1.02376,0.79064 -0.38985,0.2774 -0.59417,0.40368 -0.95495,0.59023 -0.47039,0.24321 -0.88075,0.38617 -1.27766,0.44512 -0.23271,0.0346 -1.05661,0.0207 -1.33311,-0.0224 -0.28297,-0.0441 -0.82539,-0.14998 -1.09982,-0.21466 -0.48313,-0.11387 -0.70318,-0.15918 -1.12203,-0.23104 -0.51897,-0.089 -0.57789,-0.0965 -0.94429,-0.1193 -0.42764,-0.0266 -1.04429,-0.0145 -1.24423,0.0246 -0.0244,0.005 -0.0944,0.0157 -0.15553,0.0243 -0.44275,0.0621 -1.06655,0.28843 -1.4778,0.53618 -0.0796,0.0479 -0.16956,0.10011 -0.19997,0.11592 -0.18421,0.0958 -0.94794,0.68736 -1.29951,1.00652 -0.58319,0.52944 -0.67766,0.60377 -0.67766,0.5332 z m 0.37942,-0.402 c 0.44071,-0.39082 0.44339,-0.39314 0.69818,-0.60227 0.13513,-0.11091 0.46666,-0.36303 0.63188,-0.48051 0.005,-0.004 -0.0109,-0.0214 -0.0362,-0.0391 -0.24434,-0.17115 -1.09204,-0.92251 -1.4034,-1.24392 l -0.25093,-0.25903 -0.29278,0.19487 c -0.37849,0.25192 -1.21473,0.88864 -1.44584,1.10088 -0.0408,0.0375 -0.0311,0.0497 0.31106,0.39055 0.36205,0.36066 0.46882,0.46046 0.71927,0.67238 0.0791,0.067 0.1581,0.13501 0.17547,0.15121 0.0174,0.0162 0.1026,0.0859 0.1894,0.1548 0.0868,0.0689 0.19599,0.15875 0.24266,0.19961 0.0467,0.0409 0.0934,0.0712 0.10392,0.0674 0.0105,-0.004 0.17126,-0.14187 0.35728,-0.30684 z m 1.5647,-1.23444 c 0.22651,-0.1471 0.74502,-0.39751 0.98872,-0.47749 0.11609,-0.0381 0.30993,-0.0918 0.43074,-0.11921 l 0.21967,-0.0499 -0.24189,-0.19715 c -0.40886,-0.33326 -0.73967,-0.63022 -1.04982,-0.94239 l -0.29693,-0.29886 -0.23045,0.039 c -0.55933,0.0946 -1.11598,0.29305 -1.58059,0.56339 -0.0749,0.0436 -0.0901,0.0623 -0.0742,0.0917 0.026,0.0481 0.4309,0.45442 0.65416,0.65645 0.0961,0.087 0.19778,0.17939 0.22594,0.20539 0.0452,0.0417 0.20662,0.17632 0.63247,0.52737 0.0672,0.0554 0.1322,0.10119 0.14442,0.10173 0.0122,5.9e-4 0.0922,-0.0444 0.17775,-0.1 z m 7.52538,-0.11642 c 0.0114,-0.0114 -0.0714,-0.0933 -0.19782,-0.19538 -0.30486,-0.24624 -0.55998,-0.4741 -0.8062,-0.72005 l -0.21131,-0.21107 -0.38882,-0.003 c -0.44387,-0.004 -0.94594,-0.0619 -1.33972,-0.15511 -0.0831,-0.0197 -0.15633,-0.0305 -0.16281,-0.024 -0.0353,0.0353 0.61597,0.63059 1.2146,1.11023 0.09,0.0721 0.12831,0.0856 0.3555,0.12491 0.14003,0.0242 0.34958,0.0548 0.46567,0.0679 0.11609,0.0131 0.24607,0.0279 0.28884,0.0329 0.13274,0.0155 0.76129,-0.006 0.78207,-0.027 z m -11.02152,-0.18756 c 0.12651,-0.10069 0.25502,-0.20505 0.28557,-0.23189 0.0306,-0.0269 0.17052,-0.1352 0.31106,-0.24079 0.14053,-0.10559 0.2733,-0.20635 0.29504,-0.22392 0.0285,-0.023 0.53317,-0.35988 0.63532,-0.42406 0.005,-0.003 -0.0612,-0.0931 -0.14619,-0.20059 -0.24503,-0.30989 -0.40395,-0.55243 -0.55376,-0.84515 -0.12345,-0.24122 -0.29707,-0.70449 -0.29707,-0.7927 0,-0.0178 -0.0102,-0.0387 -0.0227,-0.0465 -0.0245,-0.0152 -0.34358,0.14185 -0.57077,0.28091 -0.0773,0.0473 -0.14662,0.086 -0.15408,0.086 -0.008,0 -0.26744,0.16748 -0.57774,0.37216 l -0.56418,0.37216 0.0144,0.0889 c 0.0558,0.34383 0.33756,0.98054 0.6035,1.36382 0.18427,0.26557 0.4675,0.62072 0.49718,0.62342 0.008,7.6e-4 0.1179,-0.0811 0.24441,-0.18178 z m 11.35037,0.13503 c 0.25201,-0.0583 0.6034,-0.19091 0.89434,-0.33761 0.28233,-0.14237 0.7054,-0.38552 0.7054,-0.40542 0,-0.004 -0.10711,-0.0931 -0.23802,-0.19782 -0.26765,-0.21407 -0.48249,-0.40575 -0.76632,-0.68371 l -0.19336,-0.18936 -0.26212,0.14226 c -0.49063,0.26628 -0.98673,0.45103 -1.42973,0.53244 l -0.20561,0.0378 0.23113,0.22482 c 0.27694,0.26937 0.39276,0.37438 0.64218,0.58225 0.35252,0.29379 0.41785,0.33922 0.47166,0.328 0.0278,-0.006 0.0955,-0.0209 0.15045,-0.0336 z m -2.5148,-0.31127 c -0.35714,-0.28953 -0.82732,-0.72397 -0.97955,-0.90509 -0.0566,-0.0673 -0.0929,-0.0813 -0.44437,-0.1718 -0.63836,-0.1643 -0.60364,-0.18063 -0.28279,0.13297 0.28265,0.27624 0.41255,0.3899 0.86652,0.75813 l 0.25551,0.20725 0.24058,0.0578 c 0.13231,0.0318 0.26729,0.0631 0.29995,0.0694 0.0327,0.006 0.0944,0.0204 0.13714,0.0311 0.16288,0.0407 0.15121,0.0182 -0.093,-0.17981 z m -0.86241,-0.0654 c -0.43712,-0.35808 -0.77464,-0.65958 -1.06234,-0.94895 l -0.25137,-0.25284 -0.21522,-0.0534 c -0.32195,-0.0798 -0.64988,-0.14807 -0.66051,-0.13744 -0.0149,0.0149 0.48829,0.50133 0.75635,0.73103 0.54875,0.47021 0.68244,0.56846 0.79178,0.58185 0.14497,0.0178 0.62841,0.10662 0.63946,0.11754 0.005,0.005 0.0201,0.009 0.0333,0.008 0.0132,-4.2e-4 -9.2e-4,-0.0212 -0.0315,-0.0462 z m -2.45514,-0.15286 c 0.37868,-0.0416 1.1364,-0.0245 1.52197,0.0344 l 0.0778,0.0119 -0.0667,-0.0542 c -0.0367,-0.0298 -0.0882,-0.0728 -0.11465,-0.0954 -0.0264,-0.0227 -0.0912,-0.0762 -0.14396,-0.11896 -0.29181,-0.23646 -0.78929,-0.68711 -0.94265,-0.85393 -0.10866,-0.1182 -0.1976,-0.19546 -0.23183,-0.20141 -0.57538,-0.0999 -0.89721,-0.12586 -1.46643,-0.11818 l -0.52213,0.007 0.33336,0.33327 c 0.18335,0.18331 0.39832,0.38801 0.4777,0.4549 0.0794,0.0669 0.14933,0.12839 0.15544,0.13666 0.006,0.008 0.14972,0.12593 0.31912,0.26145 0.23184,0.18546 0.31975,0.24369 0.3555,0.23544 0.0261,-0.006 0.13747,-0.0208 0.24745,-0.0329 z m 8.09864,-0.68577 c 0.15275,-0.11588 0.34272,-0.26301 0.42215,-0.32697 0.20102,-0.16185 0.71836,-0.5867 0.7398,-0.60754 0.01,-0.009 -0.12524,-0.13607 -0.29995,-0.28135 -0.1747,-0.14529 -0.42378,-0.36705 -0.5535,-0.49282 l -0.23585,-0.22865 -0.13075,0.0971 c -0.56064,0.41639 -0.80248,0.58918 -1.14143,0.81555 -0.214,0.14292 -0.43658,0.28721 -0.49463,0.32065 -0.058,0.0334 -0.10554,0.0682 -0.10554,0.0774 0,0.0352 0.49404,0.49503 0.8308,0.77326 l 0.3531,0.29173 0.16903,-0.11382 c 0.093,-0.0626 0.29402,-0.20863 0.44677,-0.32451 z m -3.91772,0.0685 c 0.0179,-0.0114 -0.005,-0.0582 -0.0743,-0.14963 -0.22243,-0.29482 -0.34678,-0.52224 -0.42607,-0.77917 l -0.0485,-0.15731 -0.21627,-0.004 c -0.3457,-0.007 -0.90425,-0.1107 -1.49037,-0.27718 -0.18521,-0.0526 -0.33674,-0.0885 -0.33674,-0.0798 0,0.0532 0.10692,0.34604 0.17786,0.48706 0.10006,0.19892 0.18556,0.32973 0.37369,0.57174 l 0.14051,0.18075 0.20388,0.0479 c 0.2733,0.0642 0.39252,0.085 0.75934,0.13217 0.31712,0.0408 0.88987,0.0578 0.93702,0.0278 z m 0.29611,-0.0375 c 0.32635,-0.0443 0.79377,-0.20764 1.28311,-0.44848 0.23524,-0.11577 0.42771,-0.21745 0.42771,-0.22595 0,-0.008 -0.0437,-0.0687 -0.0971,-0.13381 -0.12902,-0.15728 -0.28016,-0.42449 -0.34115,-0.60311 -0.0272,-0.0796 -0.0497,-0.14631 -0.05,-0.14824 -3.4e-4,-0.002 -0.0831,0.0316 -0.18388,0.0745 -0.60026,0.25545 -1.25923,0.42541 -1.67348,0.43162 -0.0786,0.001 -0.14288,0.011 -0.14288,0.0219 0,0.0438 0.099,0.30667 0.16771,0.44533 0.13824,0.27895 0.40953,0.62791 0.47413,0.60985 0.0197,-0.006 0.0808,-0.0161 0.13581,-0.0236 z m -8.18922,-0.2319 c 0.45645,-0.25587 1.10087,-0.47154 1.57366,-0.52666 0.0703,-0.008 0.12776,-0.0196 0.12776,-0.0255 0,-0.006 -0.0485,-0.0669 -0.10781,-0.1358 -0.14107,-0.16386 -0.37323,-0.50467 -0.48638,-0.71401 -0.1398,-0.25866 -0.29398,-0.67466 -0.29438,-0.79431 -1.7e-4,-0.0461 -0.0102,-0.05 -0.12793,-0.0495 -0.16375,5.8e-4 -0.67211,0.0553 -0.81653,0.0879 -0.38326,0.0865 -1.07003,0.33271 -1.09267,0.39169 -0.0272,0.0708 0.18007,0.66917 0.31054,0.89649 0.0249,0.0433 0.0706,0.1238 0.1016,0.17879 0.12424,0.22034 0.5604,0.79986 0.60198,0.79986 0.009,0 0.10332,-0.049 0.21016,-0.1089 z m 5.79571,-0.0966 c -0.26176,-0.33331 -0.43126,-0.64541 -0.51537,-0.94894 -0.0248,-0.0895 -0.0478,-0.16546 -0.0512,-0.16877 -0.0156,-0.0154 -1.00349,-0.34189 -1.0112,-0.33418 -0.01,0.01 0.0299,0.1763 0.0586,0.24654 0.10585,0.25968 0.33763,0.67918 0.4286,0.77567 0.016,0.017 0.0839,0.0998 0.15089,0.18405 l 0.12175,0.15314 0.44482,0.11339 c 0.24465,0.0624 0.45323,0.11442 0.46351,0.11568 0.0103,0.001 -0.0304,-0.0602 -0.0904,-0.13658 z m -1.02207,-0.17774 c -0.0119,-0.0153 -0.0737,-0.0949 -0.13734,-0.17683 -0.24093,-0.31027 -0.47082,-0.77784 -0.52466,-1.06708 l -0.0154,-0.083 -0.24755,-0.0803 c -0.24374,-0.0791 -0.62385,-0.19292 -0.71762,-0.21492 -0.0429,-0.0101 -0.046,-0.005 -0.0296,0.0472 0.0101,0.0322 0.0359,0.11847 0.0572,0.19179 0.0791,0.27121 0.34508,0.74086 0.58275,1.02917 0.16834,0.2042 0.15053,0.19424 0.45956,0.25701 0.15887,0.0323 0.33884,0.0726 0.39994,0.0897 0.14731,0.0411 0.20081,0.0434 0.1727,0.007 z m -1.05507,-0.28884 c -0.31243,-0.36812 -0.58214,-0.87969 -0.66329,-1.25805 l -0.0223,-0.1042 -0.24916,-0.0595 c -0.46041,-0.10993 -0.55405,-0.12983 -0.76866,-0.16334 -0.27765,-0.0434 -0.84167,-0.0973 -1.0209,-0.0977 l -0.14063,-2.5e-4 0.0151,0.0722 c 0.0839,0.40264 0.35541,0.92637 0.7161,1.38137 l 0.17476,0.22047 0.63196,0.004 c 0.59642,0.004 0.9555,0.0316 1.2763,0.0979 0.1505,0.0311 0.15277,0.027 0.0508,-0.0932 z m 6.56519,-0.11294 c 0.47411,-0.29863 1.54929,-1.06851 1.54929,-1.10937 0,-0.0109 -0.0436,-0.0765 -0.0968,-0.14582 -0.10942,-0.14249 -0.2247,-0.34309 -0.24481,-0.42602 -0.0298,-0.1229 -0.037,-0.12158 -0.33796,0.0616 -0.55851,0.34004 -0.62618,0.37994 -0.93114,0.54893 -0.16945,0.0939 -0.40627,0.21999 -0.52626,0.28021 -0.12,0.0602 -0.21817,0.11833 -0.21817,0.12915 0,0.067 0.10121,0.32348 0.17431,0.4417 0.11207,0.18123 0.28598,0.40475 0.31492,0.40475 0.0125,0 0.15497,-0.0833 0.31664,-0.18515 z m -12.95736,-0.3284 c 0.25163,-0.16793 0.49159,-0.32476 0.53325,-0.34852 0.0417,-0.0238 0.17072,-0.0983 0.28681,-0.16569 0.11609,-0.0674 0.28875,-0.16093 0.38369,-0.2079 0.12773,-0.0632 0.16921,-0.0942 0.15949,-0.11919 -0.0342,-0.088 -0.0582,-0.6345 -0.0466,-1.06039 0.0117,-0.43052 0.01,-0.46992 -0.0236,-0.45716 -0.02,0.008 -0.17155,0.0831 -0.33673,0.16754 -0.33619,0.17189 -0.64845,0.35714 -1.1616,0.6891 l -0.34771,0.22494 -0.0163,0.41216 c -0.0239,0.60633 0.0204,1.22478 0.0851,1.1863 0.0147,-0.009 0.23253,-0.15325 0.48416,-0.32119 z m 10.00227,0.0747 c -0.009,-0.0336 -0.016,-0.33212 -0.0148,-0.66338 l 0.002,-0.60227 -0.22451,-0.0141 c -0.37161,-0.0233 -1.21592,-0.21669 -1.70204,-0.38993 l -0.1222,-0.0435 -0.0142,0.20392 c -0.0315,0.45296 -0.007,1.12454 0.0423,1.17415 0.0296,0.0296 0.74202,0.21888 1.08004,0.28695 0.37653,0.0758 0.57733,0.10225 0.80856,0.10638 l 0.16151,0.003 z m 0.41676,0.0379 c 0.42518,-0.0524 0.97503,-0.20669 1.44798,-0.40622 0.20637,-0.0871 0.21553,-0.0938 0.20056,-0.14751 -0.009,-0.031 -0.0139,-0.31373 -0.0118,-0.6284 0.002,-0.31467 5.9e-4,-0.57213 -0.004,-0.57213 -0.004,0 -0.0995,0.0356 -0.21202,0.079 -0.17536,0.0677 -0.31092,0.11255 -0.69972,0.23139 -0.17527,0.0536 -0.58255,0.11648 -0.82764,0.12783 l -0.27218,0.0126 1.7e-4,0.54667 c 8e-5,0.30067 0.007,0.59917 0.0142,0.66332 l 0.014,0.11665 h 0.0808 c 0.0444,0 0.16553,-0.0104 0.26908,-0.0232 z m -2.53569,-0.50447 c -0.01,-0.058 -0.018,-0.36678 -0.0187,-0.68608 l -0.001,-0.58055 -0.3055,-0.11279 c -0.16803,-0.062 -0.40388,-0.14838 -0.52412,-0.19187 l -0.2186,-0.0791 0.01,0.66132 c 0.005,0.36373 0.0172,0.68278 0.0262,0.70901 0.0132,0.0387 0.10674,0.079 0.49755,0.21452 0.26469,0.0918 0.49717,0.16778 0.51662,0.16894 0.0299,0.002 0.0327,-0.0141 0.018,-0.10343 z m 4.63179,-0.21422 c 0.40514,-0.21073 0.64216,-0.34545 1.19524,-0.67935 l 0.38524,-0.23257 0.003,-0.60535 0.003,-0.60535 -0.0584,0.0309 c -0.0321,0.017 -0.27836,0.15681 -0.5472,0.31071 -0.26885,0.1539 -0.68536,0.37709 -0.92559,0.49597 -0.39391,0.19493 -0.43806,0.22241 -0.44992,0.28002 -0.007,0.0351 -0.0132,0.28634 -0.0132,0.55824 0,0.45601 0.0108,0.63323 0.0387,0.63323 0.006,0 0.17223,-0.0839 0.36939,-0.18645 z m -5.77661,-0.15238 c -0.009,-0.0519 -0.0146,-0.3703 -0.0128,-0.70747 l 0.003,-0.61304 -0.47362,-0.15905 c -0.2605,-0.0875 -0.49047,-0.15906 -0.51105,-0.15906 -0.0344,0 -0.0367,0.0527 -0.0288,0.661 0.005,0.36355 0.0143,0.681 0.0211,0.70544 0.007,0.0244 0.0132,0.0506 0.0142,0.0582 9.3e-4,0.008 0.0492,0.0237 0.10723,0.0359 0.10399,0.0219 0.69722,0.20414 0.80542,0.24747 0.0874,0.035 0.092,0.0308 0.075,-0.0694 z m -5.20167,-0.12612 c 0.26301,-0.11952 0.85133,-0.30367 1.10043,-0.34445 0.0833,-0.0136 0.44688,-0.0525 0.65591,-0.0702 0.14942,-0.0126 0.17122,-0.0197 0.15694,-0.0508 -0.009,-0.0199 -0.0207,-0.36009 -0.0257,-0.75601 l -0.009,-0.71987 -0.3034,0.0145 c -0.5636,0.027 -1.12958,0.15508 -1.60706,0.36374 l -0.12609,0.0551 -0.007,0.43653 c -0.01,0.6037 0.0185,1.1142 0.0621,1.1142 0.005,0 0.0513,-0.0193 0.10313,-0.0428 z m 4.12591,-0.41427 c -0.0135,-0.16914 -0.0213,-0.49171 -0.0174,-0.71682 l 0.007,-0.40929 -0.1,-0.0307 c -0.055,-0.0169 -0.23496,-0.0646 -0.39993,-0.10597 -0.26815,-0.0673 -0.38601,-0.0935 -0.61101,-0.1358 -0.11045,-0.0208 -0.69921,-0.0953 -0.87999,-0.11138 -0.15825,-0.0141 -0.16975,-0.0121 -0.18093,0.0306 -0.0181,0.0692 -0.005,1.31526 0.0152,1.39545 l 0.0172,0.07 0.20318,0.0144 c 0.58752,0.0415 0.83522,0.07 1.17057,0.13458 0.32621,0.0628 0.45875,0.0919 0.61012,0.13391 0.0978,0.0271 0.18056,0.0469 0.184,0.0439 0.003,-0.003 -0.005,-0.14379 -0.0183,-0.31293 z m 4.33335,-0.0706 c -1.6e-4,-0.11828 -0.0308,-0.43839 -0.0569,-0.59435 -0.0257,-0.15349 -0.12596,-0.49496 -0.20176,-0.68713 l -0.0813,-0.20618 -0.36869,-0.0135 c -0.32842,-0.012 -0.67084,-0.0555 -0.98526,-0.12521 -0.0581,-0.0129 -0.15289,-0.0335 -0.21075,-0.0459 -0.0579,-0.0124 -0.17874,-0.0431 -0.26861,-0.0684 -0.0899,-0.0252 -0.16787,-0.0414 -0.17333,-0.0359 -0.006,0.005 0.0116,0.0637 0.038,0.12947 0.13773,0.34355 0.20938,0.678 0.23501,1.09701 l 0.014,0.22969 0.0801,0.0229 c 0.044,0.0126 0.2281,0.068 0.40904,0.12323 0.521,0.1589 1.16985,0.28863 1.49849,0.2996 l 0.0722,0.002 -1.7e-4,-0.12776 z m 0.43988,0.10477 c 0.49604,-0.0529 1.13377,-0.22526 1.56796,-0.42389 l 0.0635,-0.0291 -0.0118,-0.24528 c -0.0248,-0.51433 -0.12462,-0.95422 -0.31167,-1.37363 l -0.0573,-0.12853 -0.13536,0.0683 c -0.17958,0.0907 -0.57132,0.25037 -0.79013,0.32215 -0.22374,0.0734 -0.73536,0.18874 -0.83717,0.18874 -0.0427,0 -0.10768,0.006 -0.14433,0.0133 l -0.0666,0.0133 0.0826,0.2033 c 0.14866,0.36601 0.24388,0.83636 0.24467,1.20869 l 4.2e-4,0.20552 h 0.0898 c 0.0494,0 0.18684,-0.0103 0.30551,-0.023 z m -10.64786,-0.30045 c 0.32461,-0.21076 0.59399,-0.37624 0.83196,-0.51107 0.23814,-0.13492 0.65483,-0.34308 0.68679,-0.34308 0.0306,0 0.0314,-0.20639 0.002,-0.39993 -0.0304,-0.19707 -0.15743,-0.60218 -0.19304,-0.61585 -0.0556,-0.0213 -0.56575,0.28777 -1.13506,0.68785 -0.71828,0.50477 -0.72018,0.50624 -0.70381,0.54627 0.0895,0.21888 0.13001,0.3788 0.15101,0.59657 0.0224,0.2321 0.0267,0.24689 0.0654,0.22614 0.0228,-0.0122 0.15564,-0.0963 0.29516,-0.1869 z m 8.07502,-0.33757 c -8e-5,-0.0947 -0.01,-0.23218 -0.0209,-0.3055 -0.0114,-0.0733 -0.0259,-0.1683 -0.0322,-0.21108 -0.0173,-0.11682 -0.11473,-0.43546 -0.18659,-0.61 -0.0609,-0.14784 -0.0679,-0.15568 -0.16183,-0.18111 -0.0957,-0.0259 -0.59246,-0.17445 -0.8035,-0.24028 l -0.10537,-0.0329 0.0352,0.0822 c 0.14998,0.3498 0.22386,0.68757 0.229,1.04698 0.002,0.1586 0.0123,0.24116 0.0309,0.25388 0.0339,0.0232 0.94912,0.36358 0.98766,0.36729 0.0201,0.002 0.0277,-0.0451 0.0276,-0.16952 z m 4.74382,-0.0677 c 0.20774,-0.10401 0.58768,-0.30876 0.8443,-0.45498 0.25662,-0.14623 0.50916,-0.29012 0.56119,-0.31975 l 0.0946,-0.0539 -0.002,-0.18226 c -0.004,-0.37393 -0.10417,-0.92154 -0.23929,-1.30593 -0.1,-0.28445 -0.15761,-0.40181 -0.18817,-0.38329 -0.0252,0.0153 -0.39651,0.25598 -0.78193,0.50689 -0.0978,0.0636 -0.28013,0.17736 -0.40526,0.2527 -0.22151,0.13337 -0.28299,0.16834 -0.58346,0.33189 -0.0794,0.0432 -0.14839,0.0817 -0.15324,0.0855 -0.005,0.004 0.0236,0.0842 0.0633,0.17859 0.0987,0.23513 0.20395,0.58888 0.23365,0.78528 0.0422,0.27897 0.0555,0.40531 0.0562,0.53256 10e-4,0.20282 0.0162,0.24934 0.0751,0.23071 0.026,-0.008 0.21721,-0.10003 0.42495,-0.20404 z m -5.88352,-0.42105 c -0.0222,-0.4288 -0.21984,-1.09391 -0.33847,-1.13901 -0.12067,-0.0459 -0.90121,-0.24933 -0.91265,-0.23789 -0.007,0.007 0.0178,0.091 0.0552,0.18661 0.11034,0.28209 0.17164,0.58813 0.18812,0.93917 0.004,0.091 0.0168,0.16867 0.0279,0.17258 0.0309,0.0109 0.97432,0.33366 0.98449,0.33682 0.005,0.002 0.003,-0.1147 -0.005,-0.25828 z m -7.33854,-0.002 c 0.20367,-0.15308 0.59784,-0.43467 0.77945,-0.55684 0.23038,-0.15497 0.82512,-0.51349 0.85183,-0.51349 0.0113,0 0.0317,-0.0134 0.0453,-0.0298 0.0301,-0.0362 -0.0399,-0.18122 -0.22201,-0.45977 -0.0971,-0.14855 -0.35434,-0.48456 -0.46486,-0.60723 -0.0344,-0.0381 -0.62803,0.37999 -1.34831,0.94962 l -0.44954,0.35551 0.0553,0.068 c 0.18075,0.22215 0.39175,0.51845 0.48824,0.68559 0.0611,0.10584 0.12017,0.19266 0.13126,0.19292 0.0111,2.5e-4 0.0711,-0.0378 0.13331,-0.0846 z m 2.30503,-0.18416 c 0.53645,-0.19799 0.99062,-0.28253 1.54984,-0.28852 l 0.17984,-0.002 v -0.14936 c 0,-0.24603 -0.0754,-0.61305 -0.17701,-0.86219 l -0.0615,-0.15075 -0.17513,0.007 c -0.42171,0.0172 -1.02446,0.17216 -1.52244,0.39133 -0.33126,0.14579 -0.31801,0.1316 -0.26078,0.27918 0.0867,0.2236 0.13241,0.43091 0.14591,0.66213 0.0116,0.1981 0.0181,0.22695 0.049,0.21457 0.0196,-0.008 0.14213,-0.0536 0.27228,-0.10163 z m 3.97334,-0.0252 c -4.2e-4,-0.13305 -0.054,-0.53173 -0.0899,-0.66896 -0.0132,-0.0506 -0.0599,-0.18972 -0.10378,-0.30913 -0.0611,-0.16633 -0.0906,-0.21956 -0.12615,-0.2276 -0.25309,-0.0572 -0.46553,-0.0995 -0.55742,-0.11094 -0.0611,-0.008 -0.12732,-0.0185 -0.14716,-0.0241 -0.12347,-0.0351 -0.81382,-0.0977 -1.0785,-0.0978 l -0.3147,-1.7e-4 0.0433,0.11665 c 0.11019,0.29665 0.2017,0.75491 0.18859,0.94435 -0.003,0.0397 5.9e-4,0.0812 0.007,0.0922 0.007,0.011 0.10737,0.0264 0.22346,0.0342 0.21248,0.0144 0.67446,0.0687 0.77765,0.0915 0.0306,0.007 0.10554,0.0202 0.16664,0.03 0.13707,0.0219 0.74147,0.16656 0.87763,0.21005 0.055,0.0176 0.10748,0.0329 0.11664,0.0341 0.009,0.001 0.0165,-0.0503 0.0163,-0.11445 z m 3.9553,-0.32048 c 0,-0.0447 -0.30044,-0.55412 -0.46291,-0.78489 -0.0969,-0.13767 -0.37818,-0.5098 -0.40302,-0.53324 -0.006,-0.006 -0.0461,-0.0511 -0.0881,-0.1 l -0.0764,-0.0889 -0.4124,-0.002 c -0.42306,-0.002 -0.78416,-0.0426 -1.2668,-0.14331 -0.11554,-0.0241 -0.21879,-0.0438 -0.22946,-0.0438 -0.0107,0 0.026,0.0531 0.0814,0.11801 0.2807,0.32856 0.64221,0.86413 0.79232,1.1738 0.0469,0.0968 0.0583,0.10534 0.1856,0.13918 0.43903,0.11676 1.03016,0.23098 1.35763,0.26234 0.10581,0.0101 0.52213,0.0121 0.52213,0.003 z m 0.46659,-0.0437 c 0.42718,-0.0694 0.97061,-0.24837 1.38698,-0.45666 0.0987,-0.0494 0.18259,-0.0926 0.18647,-0.0961 0.0202,-0.0181 -0.30213,-0.5771 -0.48024,-0.83282 -0.21614,-0.31032 -0.58619,-0.77915 -0.62795,-0.79557 -0.01,-0.004 -0.15062,0.0631 -0.31351,0.14855 -0.5029,0.26379 -0.8922,0.40807 -1.35052,0.50049 l -0.24313,0.049 0.0786,0.0876 c 0.30878,0.34418 0.69976,0.91755 0.88945,1.30438 l 0.0737,0.15026 0.0945,-0.0125 c 0.052,-0.007 0.18952,-0.0279 0.30562,-0.0468 z m -2.57735,-0.31125 c 0,-0.0337 -0.21099,-0.39739 -0.34788,-0.59962 -0.15025,-0.22197 -0.40638,-0.55193 -0.54356,-0.70024 -0.0714,-0.0772 -0.0957,-0.0862 -0.49721,-0.18516 -0.23218,-0.0572 -0.43371,-0.10751 -0.44784,-0.11177 -0.0141,-0.004 0.0772,0.1258 0.20291,0.28904 0.24116,0.31311 0.37374,0.51392 0.55599,0.84215 l 0.11109,0.20007 0.13331,0.041 c 0.77029,0.23669 0.83319,0.25364 0.83319,0.22457 z m -8.79228,-0.15778 c 0.22353,-0.17917 0.23608,-0.18938 0.29003,-0.23597 0.19814,-0.1711 0.8178,-0.62472 1.11178,-0.81386 0.10446,-0.0672 0.19033,-0.1322 0.19082,-0.14442 10e-4,-0.0265 -0.916,-0.9372 -1.07923,-1.07181 l -0.11358,-0.0937 -0.30507,0.22207 c -0.32508,0.23663 -0.65424,0.49632 -0.84171,0.66406 -0.0631,0.0564 -0.21831,0.19191 -0.34496,0.30105 l -0.23027,0.19843 0.0636,0.0538 c 0.22177,0.18745 0.92256,0.87101 1.02671,1.00147 0.0202,0.0253 0.0448,0.0462 0.0546,0.0463 0.01,1.7e-4 0.0896,-0.0572 0.17724,-0.12746 z m 2.83773,-0.28938 c 0.3846,-0.16245 0.85536,-0.2915 1.1998,-0.32889 0.0794,-0.009 0.15942,-0.0185 0.17775,-0.022 0.0183,-0.003 0.076,-0.007 0.12807,-0.008 l 0.0948,-0.002 -0.0698,-0.13886 c -0.12656,-0.25176 -0.43006,-0.68464 -0.68545,-0.97762 -0.0293,-0.0336 -0.0714,-0.0611 -0.0936,-0.0611 -0.0656,0 -0.62008,0.11148 -0.74046,0.14888 -0.29965,0.0931 -0.47286,0.16346 -0.79431,0.32268 -0.19247,0.0953 -0.34989,0.1807 -0.34984,0.18971 7e-5,0.009 0.0281,0.0464 0.0622,0.0831 0.18441,0.19786 0.5052,0.66218 0.60188,0.8712 l 0.0532,0.11502 0.10233,-0.0516 c 0.0563,-0.0284 0.19731,-0.0918 0.3134,-0.14079 z m 10.3955,0.058 c 0.30675,-0.16455 0.76834,-0.44567 1.28384,-0.78187 l 0.4479,-0.29212 -0.13359,-0.25416 c -0.2194,-0.41741 -0.5335,-0.87315 -0.93901,-1.36244 l -0.12447,-0.15019 -0.12709,0.0931 c -0.0699,0.0512 -0.27955,0.2065 -0.46587,0.34507 -0.32408,0.24102 -0.76481,0.54108 -1.12793,0.76791 l -0.16948,0.10588 0.0804,0.0941 c 0.0661,0.0773 0.16065,0.19738 0.37154,0.4718 0.009,0.0122 0.0409,0.0522 0.07,0.0889 0.0968,0.12204 0.31265,0.46424 0.45881,0.72751 0.0794,0.14307 0.14818,0.26037 0.15278,0.26067 0.005,3.4e-4 0.10458,-0.0511 0.22218,-0.11416 z m -5.62167,-0.0575 c -0.12603,-0.22944 -0.4008,-0.63357 -0.60804,-0.8943 -0.23521,-0.29592 -0.23796,-0.29848 -0.35532,-0.33125 -0.13377,-0.0374 -0.76177,-0.17977 -0.79269,-0.17977 -0.0149,0 0.003,0.0325 0.0397,0.0722 0.23668,0.25607 0.67757,0.9017 0.77502,1.13492 0.0282,0.0675 0.0431,0.0751 0.23881,0.1223 0.11481,0.0277 0.31804,0.0837 0.45163,0.12453 0.34063,0.10408 0.3353,0.10511 0.25085,-0.0486 z m -1.05252,-0.28884 c -0.17285,-0.31567 -0.44399,-0.70309 -0.7061,-1.00894 -0.1229,-0.14341 -0.10369,-0.13765 -0.73768,-0.22146 -0.42262,-0.0559 -1.36988,-0.068 -1.40083,-0.0179 -0.005,0.009 0.006,0.029 0.026,0.0453 0.11615,0.0964 0.54244,0.70289 0.67923,0.96635 l 0.0704,0.13553 0.3792,0.0155 c 0.20856,0.009 0.4092,0.0186 0.44586,0.0224 0.0367,0.004 0.13665,0.0142 0.22219,0.0232 0.17072,0.018 0.86492,0.13433 0.98872,0.1657 0.0428,0.0108 0.0862,0.0207 0.0965,0.022 0.0103,0.001 -0.0182,-0.0652 -0.0634,-0.1477 z m -7.80435,-0.54333 c 0.0539,-0.0453 0.22226,-0.18896 0.37414,-0.31931 0.36653,-0.31458 0.73808,-0.61002 1.00516,-0.79927 l 0.21799,-0.15445 -0.10885,-0.1 c -0.16292,-0.14966 -0.21514,-0.19431 -0.72463,-0.61955 -0.75476,-0.62995 -0.66972,-0.56989 -0.74112,-0.52346 -0.31094,0.20219 -1.05511,0.81487 -1.50315,1.23756 l -0.13554,0.12787 0.0883,0.0721 c 0.20569,0.16788 0.73569,0.60628 0.75815,0.62713 0.0134,0.0125 0.0784,0.0688 0.14442,0.12514 0.066,0.0564 0.20366,0.17429 0.30589,0.26206 0.10222,0.0878 0.19382,0.15663 0.20354,0.15302 0.01,-0.004 0.0618,-0.0436 0.11566,-0.0888 z m 10.99273,-0.0121 c -0.15266,-0.17787 -0.75601,-0.78047 -1.06433,-1.06303 -0.3103,-0.28436 -0.32695,-0.29615 -0.40166,-0.28434 -0.12756,0.0202 -0.67924,0.0225 -0.89725,0.004 -0.17512,-0.0151 -0.59679,-0.0783 -0.80045,-0.12012 -0.0583,-0.0119 -0.0519,-0.002 0.0665,0.10593 0.34891,0.31737 0.69731,0.65941 1.034,1.01512 0.11769,0.12433 0.22774,0.22606 0.24456,0.22606 0.0168,0 0.14049,0.0238 0.27483,0.053 0.49779,0.10793 0.77766,0.14013 1.25194,0.14402 l 0.36335,0.003 z m 0.62238,-0.0318 c 0.33846,-0.087 0.69437,-0.2282 1.0936,-0.43398 l 0.32706,-0.16857 -0.15419,-0.16885 c -0.35268,-0.38619 -1.03633,-1.0564 -1.30325,-1.27763 l -0.0701,-0.0581 -0.19652,0.11359 c -0.5948,0.34381 -1.15775,0.57198 -1.59419,0.64616 -0.0323,0.005 0.008,0.0521 0.17167,0.19605 0.11771,0.10387 0.44672,0.4259 0.73112,0.71562 l 0.5171,0.52677 0.11109,-0.0127 c 0.0611,-0.007 0.22608,-0.0422 0.36661,-0.0784 z m -8.48007,-0.17515 c 0.5151,-0.27118 0.87591,-0.39778 1.41241,-0.4956 l 0.27555,-0.0502 -0.21468,-0.23297 c -0.17543,-0.19038 -0.75354,-0.74401 -0.98557,-0.94383 -0.0567,-0.0488 -0.0755,-0.0491 -0.29514,-0.005 -0.46015,0.092 -0.89574,0.25897 -1.35482,0.51946 -0.30307,0.17197 -0.28732,0.15798 -0.22621,0.20101 0.0944,0.0664 0.43122,0.3879 0.79227,0.75602 0.19553,0.19935 0.36156,0.36279 0.36897,0.3632 0.007,4.2e-4 0.10966,-0.0499 0.22722,-0.11178 z m 5.67556,-0.18187 c -0.17915,-0.19368 -0.39594,-0.4032 -1.04029,-1.0054 -0.0969,-0.0906 -0.11525,-0.0977 -0.45548,-0.17724 -0.19497,-0.0456 -0.38893,-0.0916 -0.43101,-0.10218 -0.0421,-0.0106 -0.0791,-0.0167 -0.0823,-0.0135 -0.003,0.003 0.0747,0.0754 0.1732,0.16048 0.0985,0.0851 0.39718,0.37689 0.66382,0.6485 l 0.4848,0.49385 0.41835,0.10867 c 0.23009,0.0598 0.43213,0.10999 0.44898,0.1116 0.0168,0.002 -0.0642,-0.0995 -0.18002,-0.2248 z m -1.03382,-0.21032 c -0.24764,-0.27908 -1.12475,-1.1025 -1.21638,-1.14192 -0.0505,-0.0217 -0.81435,-0.17931 -0.82372,-0.16994 -0.003,0.003 0.0939,0.096 0.21601,0.20591 0.12216,0.10988 0.41603,0.39669 0.65305,0.63734 l 0.43093,0.43755 0.27289,0.0575 c 0.15009,0.0316 0.34288,0.0757 0.42842,0.0979 0.0855,0.0222 0.15936,0.0372 0.16404,0.0334 0.005,-0.004 -0.0517,-0.0748 -0.12524,-0.15774 z m -1.02373,-0.24656 c -0.23917,-0.26198 -0.80533,-0.80185 -1.10659,-1.05521 -0.12323,-0.10364 -1.69324,-0.17645 -1.96094,-0.0909 -0.0302,0.01 0.0144,0.0572 0.2531,0.26994 0.1614,0.14381 0.48523,0.46127 0.7216,0.70741 l 0.23279,0.24241 0.56707,0.002 c 0.54635,10e-4 0.90465,0.0266 1.23363,0.0865 0.25519,0.0464 0.25351,0.0511 0.0593,-0.16163 z m 6.52844,0.0513 c 0.27773,-0.17332 0.7243,-0.47562 0.99984,-0.67682 0.17719,-0.12939 0.40439,-0.29497 0.50489,-0.36795 0.1005,-0.073 0.18269,-0.1377 0.18264,-0.14381 -3.3e-4,-0.0484 -0.74125,-0.78656 -1.44908,-1.44369 l -0.12833,-0.11913 -0.0716,0.0522 c -0.0394,0.0287 -0.21162,0.16327 -0.3827,0.29902 -0.49023,0.38895 -0.75485,0.58866 -1.07623,0.81221 l -0.29858,0.20769 0.15379,0.13939 c 0.37975,0.3442 0.71334,0.66782 1.03073,0.99994 l 0.34295,0.35886 0.057,-0.0347 c 0.0313,-0.0191 0.092,-0.0565 0.13474,-0.0832 z m -11.46474,-0.60106 c 0.0183,-0.0144 0.14831,-0.0856 0.28884,-0.1581 0.40869,-0.21087 0.72899,-0.33121 1.07807,-0.40504 0.12194,-0.0258 0.24671,-0.0528 0.27726,-0.0599 l 0.0555,-0.013 -0.0688,-0.0591 c -0.15992,-0.13726 -1.01648,-0.85311 -1.23508,-1.03219 l -0.23739,-0.19446 -0.2292,0.0471 c -0.33555,0.069 -0.71764,0.20313 -1.04862,0.36814 -0.16033,0.0799 -0.3065,0.15774 -0.32483,0.1729 -0.0183,0.0152 -0.0818,0.0553 -0.14108,0.0891 -0.0593,0.0339 -0.0993,0.0688 -0.0889,0.0777 0.0104,0.009 0.15385,0.12478 0.31882,0.25757 0.16498,0.13278 0.30495,0.2474 0.31106,0.25472 0.006,0.007 0.13609,0.11743 0.28884,0.2447 0.15276,0.12728 0.35056,0.29435 0.43956,0.37127 l 0.16182,0.13986 0.0604,-0.0375 c 0.0332,-0.0206 0.0754,-0.0493 0.0937,-0.0638 z m 7.6265,-0.002 c 0.0458,-0.008 0.0828,-0.02 0.0822,-0.0275 -5.9e-4,-0.008 -0.15308,-0.14098 -0.33883,-0.29648 -0.18575,-0.1555 -0.37772,-0.31702 -0.4266,-0.35894 -0.0489,-0.0419 -0.25385,-0.2122 -0.45548,-0.37842 l -0.3666,-0.30221 -0.1111,0.0148 c -0.16016,0.0214 -0.74273,0.0233 -0.95328,0.003 -0.0989,-0.009 -0.29895,-0.0374 -0.4445,-0.062 -0.14555,-0.0246 -0.26873,-0.0407 -0.27373,-0.0357 -0.005,0.005 0.11908,0.11202 0.27574,0.2378 0.2611,0.20963 0.39847,0.32448 0.74033,0.61895 0.11554,0.0995 0.41646,0.35411 0.4888,0.41353 0.0353,0.029 0.59922,0.13305 0.8854,0.16338 0.20936,0.0222 0.78441,0.0284 0.89764,0.01 z m 0.4011,-0.066 c 0.21505,-0.0481 0.60638,-0.18458 0.83758,-0.29207 0.20674,-0.0961 0.68423,-0.35714 0.74806,-0.40894 0.0186,-0.0151 -1.7e-4,-0.0451 -0.0666,-0.10614 -0.12291,-0.1129 -0.64088,-0.5477 -1.14252,-0.95907 l -0.40556,-0.33258 -0.2721,0.16051 c -0.47939,0.28279 -0.89515,0.46546 -1.30204,0.57208 l -0.23007,0.0603 0.22902,0.18761 c 0.40068,0.32821 0.86769,0.71967 1.11986,0.93867 0.13442,0.11674 0.26243,0.21297 0.28445,0.21385 0.022,8.7e-4 0.11202,-0.0145 0.19997,-0.0342 z m -2.29708,-0.12837 c -0.005,-0.005 -0.18923,-0.16055 -0.40919,-0.34624 -0.21996,-0.18569 -0.42493,-0.35942 -0.45548,-0.38608 -0.0306,-0.0267 -0.19492,-0.16248 -0.36526,-0.30184 l -0.30971,-0.25338 -0.23464,-0.0517 c -0.12905,-0.0284 -0.30954,-0.0676 -0.40109,-0.0871 -0.0915,-0.0195 -0.17654,-0.0402 -0.18886,-0.0461 -0.0351,-0.0168 0.0666,0.0703 0.43553,0.37308 0.18806,0.15433 0.36693,0.3028 0.39748,0.32993 0.0306,0.0271 0.0942,0.0808 0.14147,0.11934 0.0473,0.0385 0.0975,0.081 0.11168,0.0944 0.0142,0.0134 0.11757,0.10406 0.22978,0.20143 l 0.20402,0.17703 0.2842,0.0629 c 0.1563,0.0346 0.33418,0.0758 0.39528,0.0915 0.11271,0.029 0.18162,0.0385 0.16479,0.0229 z m -1.15351,-0.30657 c -0.24677,-0.22053 -0.33238,-0.29312 -0.8443,-0.71589 -0.20163,-0.16652 -0.41058,-0.34009 -0.46432,-0.38572 -0.0537,-0.0456 -0.11169,-0.0912 -0.12877,-0.10128 -0.035,-0.0206 -0.80972,-0.17488 -0.82114,-0.16347 -0.004,0.004 0.09,0.0865 0.20908,0.18316 0.11904,0.0967 0.24142,0.19732 0.27197,0.22359 0.0305,0.0263 0.11554,0.0978 0.18886,0.15893 0.0733,0.0611 0.30129,0.25223 0.50659,0.42465 0.30678,0.25766 0.38595,0.31366 0.44437,0.31435 0.0391,5.1e-4 0.20107,0.0292 0.35993,0.0638 0.36963,0.0805 0.37017,0.0805 0.27773,-0.002 z m -0.98242,-0.20983 c -0.0646,-0.0566 -0.14747,-0.12962 -0.18423,-0.16229 -0.0368,-0.0327 -0.32671,-0.2749 -0.64434,-0.53827 l -0.5775,-0.47886 -0.32216,-0.0416 c -0.48077,-0.0621 -1.65193,-0.0535 -1.61154,0.0119 0.006,0.01 0.22839,0.19578 0.49449,0.41395 0.2661,0.21818 0.51881,0.42816 0.56158,0.46662 0.0428,0.0385 0.16222,0.14218 0.26544,0.23049 l 0.18768,0.16055 0.20115,-0.0166 c 0.44712,-0.0368 1.18611,-0.0205 1.51204,0.0334 0.0611,0.0101 0.13892,0.0195 0.17293,0.021 0.0589,0.002 0.0562,-0.002 -0.0555,-0.10028 z m 6.31751,-0.2544 c 0.38141,-0.25646 1.59708,-1.1865 1.59708,-1.22184 0,-0.008 -0.12134,-0.11848 -0.26965,-0.24538 -0.14831,-0.12689 -0.28079,-0.24123 -0.2944,-0.25407 -0.0396,-0.0374 -1.01325,-0.84012 -1.05858,-0.87277 -0.037,-0.0267 -0.0815,0.003 -0.44792,0.30183 -0.43828,0.35707 -0.9479,0.74819 -1.22162,0.93758 l -0.17048,0.11795 0.0594,0.0483 c 0.28321,0.23027 1.08453,0.89629 1.13793,0.94578 0.0198,0.0183 0.0851,0.0748 0.14526,0.12557 0.0601,0.0507 0.1493,0.12781 0.19818,0.17127 0.0489,0.0435 0.0968,0.0794 0.10639,0.0799 0.01,5.1e-4 0.10792,-0.0599 0.21843,-0.13416 z"
       id="path830"
       inkscape:connector-curvature="0" />
  </g>
</svg>
